<svg xmlns="http://www.w3.org/2000/svg" viewBox="0 0 128 128" fill="none">
  <path
    d="M11 64C22.5 43.5 40.5 32 64 32C87.5 32 105.5 43.5 117 64C105.5 84.5 87.5 96 64 96C40.5 96 22.5 84.5 11 64Z"
    fill="#111827"
    fill-opacity="0.92"
  />
  <path
    d="M22.5 64C31.5 48.5 45.5 40 64 40C82.5 40 96.5 48.5 105.5 64C96.5 79.5 82.5 88 64 88C45.5 88 31.5 79.5 22.5 64Z"
    fill="#E5E7EB"
  />
  <circle cx="64" cy="64" r="16" fill="#1F2937"/>
  <circle cx="64" cy="64" r="8" fill="#9CA3AF"/>
  <circle cx="58" cy="58" r="4" fill="#F9FAFB"/>
</svg>